<svg xmlns="http://www.w3.org/2000/svg" viewBox="0 0 256 256" width="256" height="256">
  <circle cx="128.0" cy="128.0" r="128.0" fill="#181a21"/>
  <g transform="translate(38.4, 70.8) scale(0.3177)">
    <path d="M0 0 C2.52 -0 2.52 -0 5.08 -0.01 C8.64 -0.01 12.19 -0 15.74 0 C21.2 0.02 26.65 0 32.11 -0.01 C35.55 -0.01 38.99 -0 42.44 0 C47.17 0 47.17 0 52 0.01 C63.59 0.43 61.49 4.12 61.59 14.7 C61.65 18.1 61.65 18.1 61.71 21.57 C60.44 34.49 46.18 30.61 36.15 30.27 C33.26 29.61 30.36 28.95 27.38 28.28 C13.42 29.95 17.17 41.31 17.67 52.89 C17.7 55.31 17.74 57.74 17.78 60.24 C17.91 68.07 18.15 75.88 18.4 83.7 C18.59 91.46 18.76 99.22 18.9 106.98 C18.99 111.82 19.12 116.66 19.28 121.5 C19.8 142.41 15.8 156.35 2.15 172.27 C4.46 174.58 6.77 176.89 9.15 179.27 C19.6 194.21 19.76 209.74 19.8 227.31 C19.83 230.74 19.83 230.74 19.85 234.23 C19.89 239.04 19.92 243.84 19.94 248.65 C19.96 256.03 20.02 263.42 20.08 270.8 C20.11 275.47 20.14 280.14 20.17 284.81 C20.19 287.03 20.2 289.25 20.22 291.54 C20.27 307.03 20.27 307.03 19.15 309.27 C27.68 309.17 36.19 308.87 44.71 308.54 C61.01 308 61.01 308 61.52 316.04 C61.55 318.41 61.57 320.77 61.59 323.2 C61.65 326.74 61.65 326.74 61.71 330.36 C60.56 342.59 49.72 339.57 39.8 339.45 C34.9 339.38 34.9 339.38 29.91 339.32 C28.21 339.29 26.51 339.26 24.75 339.23 C19.54 339.14 14.33 339.08 9.12 339.03 C-20.22 338.59 -20.22 338.59 -20.23 322.28 C-20.24 319.47 -20.25 316.67 -20.25 313.78 C-20.25 310.68 -20.24 307.58 -20.24 304.39 C-20.24 301.14 -20.25 297.9 -20.25 294.55 C-20.27 285.63 -20.26 276.71 -20.25 267.78 C-20.24 258.47 -20.25 249.15 -20.25 239.83 C-20.26 224.18 -20.25 208.53 -20.24 192.88 C-20.22 174.76 -20.23 156.63 -20.24 138.51 C-20.26 122.98 -20.26 107.45 -20.25 91.92 C-20.25 82.63 -20.25 73.34 -20.26 64.06 C-20.27 53.71 -20.25 43.36 -20.24 33.01 C-20.24 29.91 -20.25 26.81 -20.25 23.61 C-20.25 20.81 -20.24 18.01 -20.23 15.13 C-20.23 12.68 -20.23 10.23 -20.23 7.7 C-19.44 -3.55 -9.25 0.01 0 0 Z " fill="#ffffff" transform="translate(29.84765625,11.734375)"/>
<path d="M0 0 C2.97 0.06 5.93 0.12 8.99 0.18 C21.15 1.05 19.5 5.7 19.51 16.63 C19.51 19.43 19.52 22.22 19.53 25.1 C19.53 28.19 19.52 31.27 19.51 34.46 C19.52 37.69 19.52 40.92 19.53 44.26 C19.54 53.15 19.54 62.04 19.53 70.93 C19.52 80.22 19.53 89.51 19.53 98.8 C19.54 114.4 19.53 130 19.52 145.59 C19.5 163.65 19.51 181.71 19.52 199.77 C19.54 215.25 19.54 230.73 19.53 246.21 C19.52 255.46 19.52 264.72 19.53 273.98 C19.54 284.29 19.53 294.6 19.51 304.92 C19.52 308.01 19.53 311.1 19.53 314.28 C19.52 317.07 19.51 319.86 19.51 322.74 C19.5 325.18 19.5 327.63 19.5 330.14 C18.35 347.06 -23.04 339.64 -36.31 339.44 C-38.46 339.41 -40.61 339.39 -42.82 339.36 C-63.45 338.94 -63.45 338.94 -63.31 324.25 C-63.31 321.16 -63.31 321.16 -63.31 318 C-62.88 312.69 -62.88 312.69 -59.88 308.69 C-55.16 309.42 -50.45 310.15 -45.74 310.89 C-27.52 313.38 -27.52 313.38 -18.33 299.54 C-18.07 288.37 -19.17 277.29 -20.27 266.18 C-21.28 253.61 -20.96 241.1 -20.69 228.5 C-20.68 226.15 -20.67 223.81 -20.66 221.39 C-20.46 204.14 -18.83 184.9 -3.88 173.69 C-6.08 168.88 -6.08 168.88 -11.88 162.69 C-12.21 161.37 -12.53 160.05 -12.88 158.69 C-13.53 158.36 -14.2 158.03 -14.88 157.69 C-18.84 146.63 -20.02 137.73 -20.16 125.99 C-20.21 121.54 -20.21 121.54 -20.27 117 C-20.32 112.33 -20.32 112.33 -20.38 107.56 C-20.55 84.51 -20.55 84.51 -21.47 61.48 C-21.85 54.16 -21.13 47.88 -19.88 40.69 C-20.87 40.19 -20.87 40.19 -21.88 39.69 C-21.34 38.02 -20.81 36.36 -20.26 34.64 C-21.43 25.23 -33.06 28.95 -40.69 29.38 C-62.53 30.38 -62.53 30.38 -63.18 19.71 C-63.18 16.91 -63.18 16.91 -63.19 14.06 C-63.2 12.19 -63.22 10.32 -63.24 8.4 C-62.5 -1.19 -56.44 0.22 -48.25 0 C-46.15 -0.07 -44.06 -0.13 -41.9 -0.2 C-27.93 -0.42 -13.97 -0.31 0 0 Z " fill="#ffffff" transform="translate(534.875,11.3125)"/>
<path d="M0 0 C0.98 20.09 -6.92 32.98 -22.5 45.38 C-31.87 53.26 -35.32 59.09 -38 71 C-44.27 75.18 -63.86 77.14 -70 71 C-70 48.06 -57.13 35.71 -40 22 C-34.09 13.13 -33 5.99 -38 -4 C-48.52 -11.01 -60.12 -10.51 -68 0 C-68.47 1.98 -68.95 3.96 -69.44 6 C-72.44 17.53 -77.82 16.52 -88.62 16.44 C-91.07 16.44 -93.52 16.43 -96.04 16.43 C-102 16 -102 16 -104 13 C-99.16 -45.03 -10.51 -63.08 0 0 Z " fill="#ffffff" transform="translate(195,136)"/>
<path d="M0 0 C1.75 21.03 -9.78 34.89 -28 44 C-28.66 44 -29.32 44 -30 44 C-23.33 52.34 -16.26 60.17 -9 68 C-8.01 69.49 -8.01 69.49 -7 71 C-4.77 65.16 -4.77 65.16 -4.62 59.38 C-3.39 48.75 2.4 49.52 11.62 49.69 C14.74 49.72 14.74 49.72 17.91 49.76 C27.57 50.21 25.32 54.05 25 63 C24.14 73.69 22.61 82.3 18 92 C16.23 95.66 16.23 95.66 22 97 C25.33 97.67 28.67 98.34 32 99 C42.86 102.62 39.13 116.96 39 127 C35.38 134.23 16.71 127.19 11 125 C6 121.94 6 121.94 2 119 C-5.33 114.6 -6.43 118.22 -13 123 C-43.46 135.93 -80.1 134.71 -98 103 C-100 98 -100 98 -100 94 C-100.66 93.67 -101.32 93.34 -102 93 C-102.66 70.39 -97.74 50.87 -76 40 C-68.45 35.47 -72.24 33.64 -75.56 26.5 C-84.73 5.82 -78.31 -13.79 -60 -26 C-34.13 -36.01 -7.48 -28.75 0 0 Z M-51.56 6.5 C-51.01 12.91 -49.46 22.77 -43 26 C-32.13 19.08 -27 15.02 -27 2 C-34.76 -9.65 -49.98 -9.01 -51.56 6.5 Z M-69 76 C-69 92.57 -61.13 102.15 -44.25 103.44 C-35.4 102.82 -28.37 101.37 -22 95 C-25.83 90.66 -25.83 90.66 -31 86 C-34.05 82.38 -37.05 78.7 -40 75 C-41.06 73.69 -42.11 72.38 -43.2 71.04 C-51.86 60.29 -51.86 60.29 -53 58 C-61.57 58 -67.23 68.92 -69 76 Z " fill="#ffffff" transform="translate(305,127)"/>
<path d="M0 0 C2.1 -0.01 4.21 -0.01 6.38 -0.02 C10.83 -0.03 15.27 -0.03 19.72 -0.04 C26.54 -0.05 33.35 -0.08 40.16 -0.11 C44.48 -0.12 48.8 -0.12 53.12 -0.12 C55.17 -0.14 57.21 -0.15 59.31 -0.16 C81.14 -0.13 81.14 -0.13 82.32 9.11 C82.25 11.47 82.19 13.83 82.12 16.27 C82.09 18.63 82.05 20.99 82 23.43 C81.17 34.34 73.7 32.33 64.43 32.29 C62.28 32.28 60.13 32.27 57.91 32.26 C43.86 32.15 29.8 32.01 15.75 31.83 C12.71 31.8 9.66 31.77 6.53 31.73 C2.14 31.68 2.14 31.68 -2.33 31.62 C-4.97 31.59 -7.61 31.55 -10.33 31.52 C-32.2 30.54 -30.95 23.38 -30.44 3.2 C-24.18 -3.06 -8.54 0.02 0 0 Z " fill="#ffffff" transform="translate(392.4375,150.796875)"/>
<path d="M0 0 C-0.9 26.67 -8.82 22.47 -33 22 C-81.99 20.01 -81.99 20.01 -87 15 C-86.34 14.34 -85.68 13.68 -85 13 C-85.33 11.68 -85.66 10.36 -86 9 C-85.01 8.34 -84.02 7.68 -83 7 C-82.67 5.35 -82.34 3.7 -82 2 C-74.57 -12.86 -2.61 -18.25 0 0 Z " fill="#ffffff" transform="translate(475,219)"/>
<path d="M0 0 C4.13 -0 4.13 -0 8.34 -0.01 C20.24 0.23 17.45 4.39 17.81 15.5 C17.91 18.15 18.01 20.8 18.11 23.52 C18.02 36.5 11.27 34.28 0.06 34.31 C-2.29 34.33 -4.64 34.34 -7.06 34.36 C-19.19 33.88 -16.28 27.15 -16.19 16.56 C-16.17 13.71 -16.16 10.87 -16.14 7.93 C-15.79 -3.74 -10.76 -0.01 0 0 Z " fill="#ffffff" transform="translate(140.9375,220.875)"/>
  </g>
</svg>